<svg width="62" height="63" viewBox="0 0 62 63" fill="none" xmlns="http://www.w3.org/2000/svg">
<path d="M30.3398 4.65552C45.1395 4.65552 57.1894 16.6951 57.1894 31.5051C57.1894 46.3152 45.1498 58.3548 30.3398 58.3548C15.5297 58.3548 3.50045 46.3049 3.50045 31.4948C3.50045 16.6848 15.54 4.65552 30.3398 4.65552ZM30.3398 3.00767C14.6337 3.00767 1.8526 15.7888 1.8526 31.4948C1.8526 47.2009 14.6337 59.9923 30.3398 59.9923C46.0458 59.9923 58.827 47.2112 58.827 31.4948C58.827 15.7785 46.0561 3.00767 30.3398 3.00767Z" fill="url(#paint0_radial_319_1553)"/>
<path d="M28.426 31.1611C28.426 31.1611 31.3154 30.9413 31.3154 27.4808C31.3154 24.0232 29.3557 22.3188 26.3603 22.3188L16.0988 22.3026V41.4107H26.5989C26.5989 41.4107 31.849 41.5769 31.849 35.6782C31.849 35.6782 32.2346 31.1611 28.426 31.1611ZM19.917 25.1688H25.1671C25.1671 25.1688 26.9636 25.1984 26.9636 27.5296C26.9636 29.9458 25.1671 29.9458 25.1671 29.9458H19.917V25.1688ZM25.6444 38.5444H19.917V32.812H25.6444C25.6444 32.812 28.5081 32.8416 28.5081 35.6782C28.5081 38.5148 26.0568 38.5444 25.6444 38.5444Z" fill="url(#paint1_radial_319_1553)"/>
<path d="M39.963 27.08C32.7915 27.08 32.8039 34.2455 32.8039 34.2455C32.8039 34.2455 32.3266 41.4111 39.963 41.4111C39.963 41.4111 46.6449 41.4111 46.6449 35.6786H42.8267C42.8267 35.6786 42.8267 38.5449 39.963 38.5449C39.963 38.5449 37.0994 38.5449 37.0994 34.7232C37.0994 34.7232 44.7358 34.7232 46.6449 34.7232C46.6449 32.8124 46.6449 27.08 39.963 27.08ZM37.0994 32.8124C37.0994 32.8124 37.0364 29.9462 39.963 29.9462C42.8888 29.9462 42.8267 32.8124 42.8267 32.8124H37.0994Z" fill="url(#paint2_radial_319_1553)"/>
<path d="M43.7816 24.2135H36.1451V26.1243H43.7816V24.2135Z" fill="url(#paint3_radial_319_1553)"/>
<defs>
<radialGradient id="paint0_radial_319_1553" cx="0" cy="0" r="1" gradientUnits="userSpaceOnUse" gradientTransform="translate(-1.90153 12.121) rotate(-3.56862) scale(74.0483 134.962)">
<stop stop-color="#E3E360"/>
<stop offset="0.817708" stop-color="#FE9800"/>
</radialGradient>
<radialGradient id="paint1_radial_319_1553" cx="0" cy="0" r="1" gradientUnits="userSpaceOnUse" gradientTransform="translate(15.0603 25.3585) rotate(-4.32314) scale(20.503 45.2155)">
<stop stop-color="#E3E360"/>
<stop offset="0.817708" stop-color="#FE9800"/>
</radialGradient>
<radialGradient id="paint2_radial_319_1553" cx="0" cy="0" r="1" gradientUnits="userSpaceOnUse" gradientTransform="translate(31.8856 29.3719) rotate(-3.69238) scale(17.9991 33.9369)">
<stop stop-color="#E3E360"/>
<stop offset="0.817708" stop-color="#FE9800"/>
</radialGradient>
<radialGradient id="paint3_radial_319_1553" cx="0" cy="0" r="1" gradientUnits="userSpaceOnUse" gradientTransform="translate(35.642 24.5191) rotate(-0.89387) scale(9.90689 4.53378)">
<stop stop-color="#E3E360"/>
<stop offset="0.817708" stop-color="#FE9800"/>
</radialGradient>
</defs>
</svg>
