<svg width="62" height="63" viewBox="0 0 62 63" fill="none" xmlns="http://www.w3.org/2000/svg">
<path d="M30.5771 4.65552C45.3769 4.65552 57.4268 16.6951 57.4268 31.5051C57.4268 46.3152 45.3872 58.3548 30.5771 58.3548C15.7671 58.3548 3.73781 46.3049 3.73781 31.4948C3.73781 16.6848 15.7774 4.65552 30.5771 4.65552ZM30.5771 3.00767C14.8711 3.00767 2.08997 15.7888 2.08997 31.4948C2.08997 47.2009 14.8711 59.9923 30.5771 59.9923C46.2832 59.9923 59.0643 47.2112 59.0643 31.4948C59.0643 15.7785 46.2935 3.00767 30.5771 3.00767Z" fill="url(#paint0_radial_319_1670)"/>
<path fill-rule="evenodd" clip-rule="evenodd" d="M17.8441 18.4168C15.1947 18.4168 13.0469 20.5645 13.0469 23.214V39.786C13.0469 42.4354 15.1947 44.5832 17.8441 44.5832H43.3209C45.9703 44.5832 48.1181 42.4354 48.1181 39.786V23.214C48.1181 20.5645 45.9703 18.4168 43.3209 18.4168H17.8441ZM16.2357 21.7416C15.8804 22.1295 15.6636 22.6464 15.6636 23.214V39.786C15.6636 40.9903 16.6398 41.9666 17.8441 41.9666H43.3209C44.5252 41.9666 45.5014 40.9903 45.5014 39.786V23.214C45.5014 22.4469 45.1053 21.7723 44.5066 21.3836L31.0634 33.7705L30.1769 34.5874L29.2903 33.7705L16.2357 21.7416ZM41.0251 21.0334H19.3286L30.1769 31.0293L41.0251 21.0334Z" fill="url(#paint1_radial_319_1670)"/>
<defs>
<radialGradient id="paint0_radial_319_1670" cx="0" cy="0" r="1" gradientUnits="userSpaceOnUse" gradientTransform="translate(-1.66416 12.121) rotate(-3.56862) scale(74.0483 134.962)">
<stop stop-color="#E3E360"/>
<stop offset="0.817708" stop-color="#FE9800"/>
</radialGradient>
<radialGradient id="paint1_radial_319_1670" cx="0" cy="0" r="1" gradientUnits="userSpaceOnUse" gradientTransform="translate(10.736 22.6015) rotate(-2.66358) scale(45.542 62.0256)">
<stop stop-color="#E3E360"/>
<stop offset="0.817708" stop-color="#FE9800"/>
</radialGradient>
</defs>
</svg>
