<svg width="62" height="63" viewBox="0 0 62 63" fill="none" xmlns="http://www.w3.org/2000/svg">
<path d="M31.4672 4.65552C46.2669 4.65552 58.3168 16.6951 58.3168 31.5051C58.3168 46.3152 46.2772 58.3548 31.4672 58.3548C16.6571 58.3548 4.62783 46.3049 4.62783 31.4948C4.62783 16.6848 16.6674 4.65552 31.4672 4.65552ZM31.4672 3.00767C15.7611 3.00767 2.97998 15.7888 2.97998 31.4948C2.97998 47.2009 15.7611 59.9923 31.4672 59.9923C47.1732 59.9923 59.9543 47.2112 59.9543 31.4948C59.9543 15.7785 47.1835 3.00767 31.4672 3.00767Z" fill="url(#paint0_radial_319_1559)"/>
<path d="M26.3916 31.5782C26.3916 28.7659 28.6702 26.4854 31.4818 26.4854C34.2933 26.4854 36.5731 28.7659 36.5731 31.5782C36.5731 34.3906 34.2933 36.6711 31.4818 36.6711C28.6702 36.6711 26.3916 34.3906 26.3916 31.5782ZM23.6393 31.5782C23.6393 35.9109 27.1504 39.423 31.4818 39.423C35.8132 39.423 39.3242 35.9109 39.3242 31.5782C39.3242 27.2456 35.8132 23.7335 31.4818 23.7335C27.1504 23.7335 23.6393 27.2456 23.6393 31.5782ZM37.8019 23.4225C37.8018 23.7851 37.9091 24.1395 38.1104 24.4411C38.3117 24.7427 38.5978 24.9778 38.9327 25.1167C39.2675 25.2555 39.636 25.292 39.9915 25.2214C40.3471 25.1508 40.6737 24.9763 40.9301 24.72C41.1865 24.4638 41.3612 24.1372 41.4321 23.7816C41.5029 23.426 41.4668 23.0574 41.3282 22.7223C41.1896 22.3873 40.9548 22.1009 40.6535 21.8993C40.3522 21.6977 39.9979 21.5901 39.6354 21.5899H39.6347C39.1488 21.5902 38.6829 21.7833 38.3393 22.1269C37.9956 22.4705 37.8024 22.9365 37.8019 23.4225V23.4225ZM25.3115 44.0136C23.8225 43.9458 23.0131 43.6977 22.4753 43.4881C21.7622 43.2104 21.2534 42.8797 20.7185 42.3453C20.1836 41.811 19.8525 41.3026 19.5761 40.5893C19.3664 40.0515 19.1184 39.2417 19.0507 37.7522C18.9767 36.1419 18.9619 35.6581 18.9619 31.5784C18.9619 27.4986 18.9779 27.0162 19.0507 25.4045C19.1185 23.915 19.3684 23.1068 19.5761 22.5674C19.8537 21.8542 20.1843 21.3452 20.7185 20.8102C21.2527 20.2751 21.761 19.9439 22.4753 19.6674C23.0129 19.4577 23.8225 19.2096 25.3115 19.1419C26.9214 19.0678 27.405 19.053 31.4818 19.053C35.5585 19.053 36.0426 19.069 37.6539 19.1419C39.1429 19.2097 39.9509 19.4597 40.4901 19.6674C41.2032 19.9439 41.7119 20.2758 42.2469 20.8102C42.7818 21.3445 43.1117 21.8542 43.3893 22.5674C43.5989 23.1052 43.847 23.915 43.9147 25.4045C43.9887 27.0162 44.0035 27.4986 44.0035 31.5784C44.0035 35.6581 43.9887 36.1405 43.9147 37.7522C43.8468 39.2417 43.5976 40.0513 43.3893 40.5893C43.1117 41.3026 42.781 41.8115 42.2469 42.3453C41.7127 42.8792 41.2032 43.2104 40.4901 43.4881C39.9525 43.6978 39.1429 43.9459 37.6539 44.0136C36.044 44.0877 35.5604 44.1025 31.4818 44.1025C27.4032 44.1025 26.9209 44.0877 25.3115 44.0136V44.0136ZM25.1851 16.3934C23.5592 16.4675 22.4482 16.7254 21.4779 17.103C20.4731 17.493 19.6224 18.0163 18.7724 18.8652C17.9224 19.7141 17.4006 20.5663 17.0108 21.5715C16.6332 22.5426 16.3754 23.6533 16.3014 25.2797C16.2261 26.9086 16.2089 27.4294 16.2089 31.5782C16.2089 35.7271 16.2261 36.2478 16.3014 37.8768C16.3754 39.5033 16.6332 40.6139 17.0108 41.585C17.4006 42.5895 17.9225 43.4427 18.7724 44.2913C19.6223 45.1399 20.4731 45.6623 21.4779 46.0534C22.45 46.4311 23.5592 46.689 25.1851 46.763C26.8144 46.8371 27.3341 46.8556 31.4818 46.8556C35.6294 46.8556 36.15 46.8383 37.7785 46.763C39.4045 46.689 40.5148 46.4311 41.4856 46.0534C42.4899 45.6623 43.3411 45.1402 44.1912 44.2913C45.0412 43.4424 45.5618 42.5895 45.9528 41.585C46.3303 40.6139 46.5894 39.5031 46.6622 37.8768C46.7362 36.2466 46.7535 35.7271 46.7535 31.5782C46.7535 27.4294 46.7362 26.9086 46.6622 25.2797C46.5881 23.6532 46.3303 22.542 45.9528 21.5715C45.5618 20.567 45.0398 19.7155 44.1912 18.8652C43.3425 18.0149 42.4899 17.493 41.4869 17.103C40.5148 16.7254 39.4044 16.4663 37.7797 16.3934C36.1512 16.3194 35.6306 16.3009 31.483 16.3009C27.3354 16.3009 26.8144 16.3182 25.1851 16.3934Z" fill="url(#paint1_radial_319_1559)"/>
<defs>
<radialGradient id="paint0_radial_319_1559" cx="0" cy="0" r="1" gradientUnits="userSpaceOnUse" gradientTransform="translate(-0.774145 12.121) rotate(-3.56862) scale(74.0483 134.962)">
<stop stop-color="#E3E360"/>
<stop offset="0.817708" stop-color="#FE9800"/>
</radialGradient>
<radialGradient id="paint1_radial_319_1559" cx="0" cy="0" r="1" gradientUnits="userSpaceOnUse" gradientTransform="translate(14.1962 21.1874) rotate(-3.56915) scale(39.6982 72.3652)">
<stop stop-color="#E3E360"/>
<stop offset="0.817708" stop-color="#FE9800"/>
</radialGradient>
</defs>
</svg>
