<svg width="62" height="63" viewBox="0 0 62 63" fill="none" xmlns="http://www.w3.org/2000/svg">
<path d="M31.4123 5.67322C46.2121 5.67322 58.262 17.7128 58.262 32.5229C58.262 47.3329 46.2224 59.3725 31.4123 59.3725C16.6023 59.3725 4.57302 47.3226 4.57302 32.5126C4.57302 17.7025 16.6126 5.67322 31.4123 5.67322ZM31.4123 4.02538C15.7063 4.02538 2.92517 16.8065 2.92517 32.5126C2.92517 48.2186 15.7063 61.01 31.4123 61.01C47.1184 61.01 59.8995 48.2289 59.8995 32.5126C59.8995 16.7962 47.1287 4.02538 31.4123 4.02538Z" fill="url(#paint0_radial_319_1556)"/>
<path d="M24.3944 43.8718V27.3791H18.9173V43.8718H24.3949H24.3944ZM21.657 25.1277C23.5666 25.1277 24.7554 23.8613 24.7554 22.2786C24.7196 20.6598 23.5666 19.4287 21.6933 19.4287C19.8188 19.4287 18.5945 20.6598 18.5945 22.2784C18.5945 23.8611 19.7829 25.1276 21.6211 25.1276H21.6566L21.657 25.1277ZM27.426 43.8718H32.9026V34.6626C32.9026 34.1703 32.9384 33.6767 33.0831 33.3251C33.4788 32.3399 34.38 31.32 35.8934 31.32C37.8747 31.32 38.6678 32.8323 38.6678 35.0497V43.8718H44.1443V34.4154C44.1443 29.3498 41.4426 26.9925 37.8392 26.9925C34.885 26.9925 33.5875 28.6452 32.8666 29.7708H32.9031V27.3797H27.4263C27.4978 28.9269 27.4259 43.8724 27.4259 43.8724L27.426 43.8718Z" fill="url(#paint1_radial_319_1556)"/>
<defs>
<radialGradient id="paint0_radial_319_1556" cx="0" cy="0" r="1" gradientUnits="userSpaceOnUse" gradientTransform="translate(-0.828955 13.1387) rotate(-3.56862) scale(74.0483 134.962)">
<stop stop-color="#E3E360"/>
<stop offset="0.817708" stop-color="#FE9800"/>
</radialGradient>
<radialGradient id="paint1_radial_319_1556" cx="0" cy="0" r="1" gradientUnits="userSpaceOnUse" gradientTransform="translate(16.911 23.3379) rotate(-3.41389) scale(33.201 57.9017)">
<stop stop-color="#E3E360"/>
<stop offset="0.817708" stop-color="#FE9800"/>
</radialGradient>
</defs>
</svg>
