<svg width="62" height="63" viewBox="0 0 62 63" fill="none" xmlns="http://www.w3.org/2000/svg">
<path d="M30.6321 4.65552C45.4319 4.65552 57.4818 16.6951 57.4818 31.5051C57.4818 46.3152 45.4422 58.3548 30.6321 58.3548C15.8221 58.3548 3.79281 46.3049 3.79281 31.4948C3.79281 16.6848 15.8324 4.65552 30.6321 4.65552ZM30.6321 3.00767C14.9261 3.00767 2.14496 15.7888 2.14496 31.4948C2.14496 47.2009 14.9261 59.9923 30.6321 59.9923C46.3382 59.9923 59.1193 47.2112 59.1193 31.4948C59.1193 15.7785 46.3485 3.00767 30.6321 3.00767Z" fill="url(#paint0_radial_319_1685)"/>
<path d="M45.7818 37.9782C45.5753 37.7029 44.2677 37.0147 44.2677 37.0147C43.7171 36.7394 39.863 34.8812 39.1748 34.6059C38.5554 34.3994 37.8672 34.1241 37.2478 35.0876C36.766 35.7759 35.3895 37.4276 34.9078 37.9782C34.5637 38.3223 34.2884 38.46 33.6002 38.1158C33.4625 38.047 30.0214 36.6017 27.6814 34.4682C25.5479 32.61 24.1026 30.3389 23.6209 29.4442C23.2768 28.8936 23.4832 28.6183 23.8962 28.2054C24.1714 27.9301 25.2038 26.6225 25.3414 26.5536C25.5479 26.2783 25.8232 25.6589 25.8232 25.6589C26.1673 25.0395 25.9608 24.489 25.7544 24.1448C25.6167 23.8695 23.6209 19.1208 23.4832 18.7078C22.9326 17.3314 22.3132 17.2626 21.7627 17.3314C21.4874 17.3314 18.8721 17.4002 18.0462 18.2949L17.9086 18.4326C17.0827 19.3273 15.3621 21.1166 15.3621 24.5578C15.3621 25.3836 15.4998 26.2095 15.7751 27.1042C16.2568 28.756 17.2204 30.6142 18.4592 32.3347C18.4592 32.4036 20.3862 35.0188 21.3497 36.12C24.3779 39.6299 27.8191 42.1764 31.2602 43.5528C35.6648 45.2734 37.523 45.6863 38.6242 45.6863C39.106 45.6863 40.0695 45.4799 40.276 45.411C41.6524 45.2734 44.8183 43.6217 45.5065 41.7634C45.9882 39.9052 45.9882 38.3911 45.7818 37.9782Z" fill="url(#paint1_radial_319_1685)"/>
<defs>
<radialGradient id="paint0_radial_319_1685" cx="0" cy="0" r="1" gradientUnits="userSpaceOnUse" gradientTransform="translate(-1.60917 12.121) rotate(-3.56862) scale(74.0483 134.962)">
<stop stop-color="#E3E360"/>
<stop offset="0.817708" stop-color="#FE9800"/>
</radialGradient>
<radialGradient id="paint1_radial_319_1685" cx="0" cy="0" r="1" gradientUnits="userSpaceOnUse" gradientTransform="translate(13.3491 21.8512) rotate(-3.3142) scale(39.6954 67.2155)">
<stop stop-color="#E3E360"/>
<stop offset="0.817708" stop-color="#FE9800"/>
</radialGradient>
</defs>
</svg>
