<svg width="275" height="201" viewBox="0 0 275 201" fill="none" xmlns="http://www.w3.org/2000/svg">
<path fill-rule="evenodd" clip-rule="evenodd" d="M188.702 199.754C187.318 199.292 186.217 198.687 185.4 197.941L186.466 195.702C187.211 196.377 188.205 196.946 189.412 197.372C190.619 197.799 191.827 198.012 193.069 198.012C194.738 198.012 195.98 197.728 196.797 197.159C197.613 196.59 198.04 195.844 198.04 194.92C198.04 194.244 197.826 193.676 197.365 193.249C196.903 192.823 196.371 192.503 195.696 192.254C195.022 192.005 194.099 191.756 192.892 191.472C191.4 191.117 190.158 190.761 189.235 190.37C188.312 190.015 187.531 189.446 186.856 188.7C186.182 187.953 185.862 186.923 185.862 185.643C185.862 184.577 186.146 183.617 186.714 182.764C187.282 181.911 188.134 181.236 189.27 180.703C190.406 180.17 191.827 179.921 193.531 179.921C194.702 179.921 195.874 180.063 197.01 180.383C198.146 180.703 199.14 181.129 199.957 181.698L198.998 183.973C198.146 183.439 197.258 183.048 196.3 182.764C195.341 182.48 194.418 182.338 193.495 182.338C191.862 182.338 190.655 182.622 189.838 183.226C189.022 183.83 188.631 184.577 188.631 185.501C188.631 186.176 188.844 186.745 189.306 187.171C189.767 187.598 190.335 187.918 191.01 188.167C191.685 188.415 192.608 188.664 193.779 188.913C195.27 189.268 196.513 189.624 197.4 190.015C198.324 190.37 199.105 190.939 199.744 191.685C200.418 192.432 200.738 193.427 200.738 194.707C200.738 195.773 200.454 196.732 199.886 197.586C199.318 198.439 198.43 199.149 197.294 199.647C196.122 200.145 194.702 200.393 192.998 200.393C191.578 200.465 190.122 200.251 188.702 199.754ZM73.7795 200.216L73.744 185.643L66.5014 197.799H65.1878L57.9453 185.714V200.216H55.2115V180.169H57.5547L65.8979 194.244L74.1346 180.169H76.4777L76.5132 200.216H73.7795ZM43.4602 200.251V197.763V197.727H31.8153V191.258H41.8626V188.842H31.8153V182.693H43.0697V180.205H28.9395V200.251H43.4602ZM10.052 194.102L14.3833 200.251H17.5076L12.7502 193.534C14.1703 193.036 15.2709 192.254 16.0165 191.152C16.762 190.086 17.1526 188.735 17.1526 187.207C17.1526 185.039 16.407 183.333 14.9159 182.089C13.4248 180.845 11.4011 180.241 8.8094 180.241H0.998779V200.287H3.87451V194.173H8.8094C9.02945 194.173 9.33475 194.152 9.70877 194.126L9.7088 194.126C9.81753 194.118 9.93206 194.11 10.052 194.102ZM14.2768 187.207C14.2768 188.664 13.8153 189.766 12.8567 190.548C11.8982 191.33 10.5135 191.721 8.70289 191.721H3.83901V182.693H8.70289C10.5135 182.693 11.8982 183.084 12.8567 183.866C13.8153 184.648 14.2768 185.75 14.2768 187.207ZM97.3534 200.251V193.32L105.271 180.241H102.43L96.0043 190.797L89.6138 180.241H86.5606L94.5132 193.285V200.251H97.3534ZM130.158 180.205H138.608C140.738 180.205 142.584 180.631 144.253 181.449C145.886 182.302 147.164 183.475 148.087 184.967C148.975 186.496 149.436 188.237 149.436 190.192C149.436 192.147 148.975 193.889 148.087 195.417C147.164 196.945 145.921 198.118 144.253 198.936C142.62 199.789 140.738 200.18 138.608 200.18H130.158V180.205ZM138.43 197.763C140.063 197.763 141.484 197.443 142.691 196.803C143.898 196.163 144.856 195.275 145.531 194.173C146.205 193.036 146.525 191.721 146.525 190.228C146.525 188.735 146.205 187.42 145.531 186.283C144.856 185.145 143.933 184.257 142.691 183.652C141.448 183.013 140.028 182.693 138.43 182.693H133.034V197.763H138.43ZM175.46 200.251V197.763V197.727H163.815V191.258H173.862V188.842H163.815V182.693H175.069V180.205H160.939V200.251H175.46ZM215.01 180.205H212.134V200.251H215.01V180.205ZM242.028 190.121H244.761V197.941C243.767 198.758 242.631 199.398 241.317 199.825C240.004 200.251 238.619 200.5 237.199 200.5C235.176 200.5 233.365 200.073 231.732 199.185C230.099 198.296 228.856 197.088 227.897 195.524C226.974 193.96 226.513 192.218 226.513 190.264C226.513 188.309 226.974 186.567 227.897 185.003C228.82 183.439 230.099 182.231 231.732 181.342C233.365 180.454 235.211 180.027 237.235 180.027C238.832 180.027 240.288 180.276 241.602 180.809C242.915 181.342 244.016 182.089 244.939 183.119L243.164 184.897C241.566 183.368 239.613 182.586 237.377 182.586C235.85 182.586 234.501 182.906 233.258 183.582C232.051 184.257 231.093 185.145 230.418 186.318C229.744 187.491 229.389 188.806 229.389 190.299C229.389 191.756 229.744 193.071 230.418 194.244C231.093 195.417 232.051 196.341 233.258 197.017C234.465 197.692 235.815 198.012 237.341 198.012C239.116 198.012 240.678 197.585 242.028 196.732V190.121ZM274.584 200.251V180.205H271.708V195.133L259.708 180.205H257.365V200.251H260.24V185.323L272.24 200.251H274.584Z" fill="#F2F2F2"/>
<path fill-rule="evenodd" clip-rule="evenodd" d="M183.59 24.8469C171.377 12.5846 155.081 5.83143 137.791 5.83143C120.501 5.83143 104.241 12.6201 91.9926 24.8469C79.7441 37.0736 72.9986 53.3878 72.9986 70.6972C72.9986 88.0066 79.7441 104.285 91.9926 116.548C104.206 128.81 120.501 135.563 137.791 135.563C155.081 135.563 171.341 128.81 183.59 116.548C195.838 104.321 202.584 88.0066 202.584 70.6972C202.584 53.3878 195.803 37.1092 183.59 24.8469ZM67.6732 70.6972C67.6732 31.9199 99.0577 0.5 137.791 0.5C176.525 0.5 207.909 31.9199 207.909 70.6972C207.909 109.474 176.525 140.894 137.791 140.894C99.0577 140.894 67.6732 109.474 67.6732 70.6972ZM111.271 86.8692H123.945V107.591H111.271V86.8692ZM155.259 84.3456C149.401 86.4782 143.365 86.7981 143.365 86.7981L157.85 107.626H171.483L155.259 84.3456ZM168.395 59.1811C168.395 64.3349 167.117 68.7777 164.631 72.4742C162.146 76.1706 158.56 78.943 153.874 80.7912C153.874 80.7912 147.235 83.3148 139.353 83.3148H111.271V34.9053H139.353C145.247 34.9053 150.395 35.865 154.797 37.8199C159.164 39.7747 162.537 42.5471 164.88 46.208C167.223 49.8334 168.395 54.1696 168.395 59.1811ZM138.75 72.8296C144.253 72.8296 148.442 71.6567 151.318 69.2753C154.194 66.8939 155.614 63.5529 155.614 59.1811C155.614 54.8094 154.194 51.4683 151.318 49.1225C148.478 46.7767 144.288 45.6038 138.75 45.6038H123.945V72.8296H138.75Z" fill="url(#paint0_radial_319_1573)"/>
<defs>
<radialGradient id="paint0_radial_319_1573" cx="0" cy="0" r="1" gradientUnits="userSpaceOnUse" gradientTransform="translate(58.4328 22.9528) rotate(-3.57199) scale(182.263 332.507)">
<stop stop-color="#02F0D4"/>
<stop offset="0.817708" stop-color="#00B2FE"/>
</radialGradient>
</defs>
</svg>
