<svg preserveAspectRatio="none" overflow="visible" style="display: block;" width="239.662" height="57.0119" viewBox="0 0 239.662 57.0119" fill="none" xmlns="http://www.w3.org/2000/svg">
<g id="canada">
<g id="canada-logo">
<path d="M28.4744 0.0098364C34.6704 -0.157275 38.5225 1.84887 40.532 2.68464C41.2023 2.85207 43.044 3.68674 43.7137 2.18269C44.3834 0.678741 44.2156 1.68119 44.2156 1.17976C44.5507 0.51118 45.8905 -0.156727 46.2254 1.51472C46.5604 3.18802 47.5652 16.7261 47.5652 18.3975C47.5648 20.0686 45.3882 20.2356 45.2205 18.5645C45.053 16.3915 40.6991 2.01584 28.4744 2.0157C17.5893 2.35001 10.556 14.7196 11.0584 30.9337C11.3933 46.1448 18.5939 54.168 30.6512 54.168C42.2061 53.8337 45.3877 45.142 47.0623 39.793C47.7322 37.62 49.9099 38.122 49.24 40.295C47.2304 49.1541 40.364 57.0098 28.1394 57.0098C14.7424 57.177 0.340586 47.1475 0.00565902 29.2618C-0.329039 10.8749 14.2401 0.344146 28.4744 0.0098364Z" fill="#5A5A5A"/>
<path fill-rule="evenodd" clip-rule="evenodd" d="M195.602 0.0098364C197.11 0.0098364 197.11 1.34724 197.11 1.8487V41.7989C197.11 54.5028 201.297 54.168 201.967 54.168L202.134 54.336C203.138 54.5031 203.473 55.1715 202.302 55.6729C201.129 55.8401 195.101 56.5085 192.589 56.8428C190.244 57.01 190.244 55.3389 190.244 54.503C190.076 53.333 190.244 53.1654 188.904 54.001C187.732 54.6697 189.239 56.6759 180.028 56.6759C170.818 56.6757 161.942 49.8219 161.942 38.1212C161.942 26.4205 171.655 20.7374 179.526 20.7374C184.382 20.7374 188.233 23.0773 189.071 23.7462C189.573 23.9133 189.909 24.0803 189.909 23.7462V10.8751C189.909 2.0158 184.55 1.51472 183.378 1.51472C182.206 1.5147 182.708 0.67882 183.378 0.678782C184.048 0.511635 194.094 0.00989173 195.602 0.0098364ZM180.698 22.5762C175.172 22.2422 169.98 29.2625 169.98 37.6202C169.98 45.9779 173.833 54.67 181.201 54.67C185.555 54.6699 189.742 51.1591 189.909 41.13V38.9571C189.742 28.7607 187.899 23.0777 180.698 22.5762Z" fill="#5A5A5A"/>
<path fill-rule="evenodd" clip-rule="evenodd" d="M140.34 20.2354C150.722 20.2354 154.742 24.4149 154.742 29.5968V46.4796C154.742 54.5024 157.923 54.503 158.761 54.503C159.598 54.503 160.937 54.0013 161.607 52.4971V52.3302C162.11 51.4944 163.115 51.9955 162.78 52.6641C162.445 53.4999 161.607 56.0069 156.416 56.0069C151.225 56.0068 149.048 53.8337 148.378 53.1651C148.043 52.8312 147.652 52.8311 147.206 53.1651C146.034 54.168 143.354 56.1738 138.833 56.1739C134.144 56.3411 127.277 54.0014 127.277 47.3155C127.11 40.4621 133.642 38.7896 135.986 38.2882C136.659 38.1207 142.517 37.285 144.526 36.2823C146.536 35.2794 147.373 34.4439 147.373 31.9366V30.2647C147.373 25.2503 145.531 21.9073 141.01 21.9073C136.488 21.9073 136.321 25.2509 135.986 26.421C135.651 27.4241 135.315 30.2647 132.469 30.2647C129.622 30.2646 128.952 28.5933 128.952 27.0889C128.952 25.7513 129.958 20.2354 140.34 20.2354ZM147.038 37.1182C142.87 38.7825 140.693 40.1155 140.675 40.127C135.986 42.8015 134.981 46.4796 134.981 48.4854C134.981 50.4914 136.154 54.336 140.843 54.336C144.694 54.3357 147.373 50.3235 147.373 44.9747V37.1182H147.038Z" fill="#5A5A5A"/>
<path fill-rule="evenodd" clip-rule="evenodd" d="M62.8045 20.2354C73.187 20.2355 77.2059 24.415 77.2059 29.5968V46.4796C77.2059 54.5028 80.3881 54.503 81.2254 54.503C82.0627 54.5029 83.4022 54.0013 84.0721 52.4971L84.2391 52.3302C84.574 51.4944 85.7468 51.9957 85.4119 52.4971C85.0769 53.3331 84.2387 55.8399 79.0477 55.8399C73.8566 55.8398 71.6794 53.6667 71.0096 52.9981C70.6747 52.6641 70.2841 52.664 69.8377 52.9981C68.6655 54.001 65.9861 56.0069 61.4646 56.0069C56.7757 56.1741 50.0774 53.8338 49.91 47.1475C49.7427 40.2944 56.2735 38.6226 58.618 38.1212C59.2897 37.9538 65.1488 37.118 67.158 36.1153C68.6652 35.4467 69.5028 34.6112 69.8377 32.7725V30.0977C69.6702 25.2505 67.9956 21.9075 63.4744 21.9073C58.9529 21.9073 58.7849 25.2509 58.45 26.421C58.1151 27.4243 57.7799 30.2647 54.9334 30.2647C52.0865 30.2647 51.4168 28.5933 51.4168 27.0889C51.4169 25.7513 52.4224 20.2354 62.8045 20.2354ZM69.3357 37.1182C65.1553 38.7873 62.9779 40.1231 62.9715 40.127C58.2825 42.8015 57.2781 46.4796 57.2781 48.4854C57.2782 50.4784 58.4353 54.2839 63.0486 54.3331C67.0249 54.2822 69.6697 50.2894 69.6697 44.9747V37.1182H69.3357Z" fill="#5A5A5A"/>
<path fill-rule="evenodd" clip-rule="evenodd" d="M217.038 20.2354C227.421 20.2354 231.439 24.4149 231.439 29.5968V46.4796C231.439 54.5026 234.621 54.503 235.459 54.503C236.296 54.503 237.636 54.0013 238.305 52.4971V52.3302C238.64 51.4944 239.813 51.9957 239.645 52.4971C239.31 53.3332 238.473 55.8398 233.282 55.8399C228.091 55.8399 225.914 53.6668 225.244 52.9981C224.909 52.6638 224.518 52.6638 224.071 52.9981C222.899 54.0011 220.22 56.0069 215.698 56.0069C211.009 56.174 204.143 53.8337 204.143 47.1475C203.976 40.2944 210.507 38.6226 212.851 38.1212C213.522 37.9539 219.383 37.1182 221.392 36.1153C222.899 35.4467 223.736 34.611 224.071 32.7725V30.0977C223.904 25.2504 222.229 21.9073 217.708 21.9073C213.186 21.9073 213.018 25.2509 212.683 26.421C212.349 27.4244 212.013 30.2647 209.167 30.2647C206.32 30.2646 205.65 28.5933 205.65 27.0889C205.65 25.7513 206.656 20.2354 217.038 20.2354ZM223.569 37.1182C219.383 38.7898 217.205 40.127 217.205 40.127C212.516 42.8015 211.512 46.4796 211.512 48.4854C211.512 50.4914 212.684 54.336 217.373 54.336C221.392 54.336 224.071 50.3238 224.071 44.8077V37.4532C224.071 37.286 223.904 37.1182 223.904 37.1182H223.569Z" fill="#5A5A5A"/>
<path d="M108.856 20.2354C120.631 20.2354 121.073 27.4344 121.082 30.9512V44.9747C121.082 52.329 123.426 53.8336 124.765 54.168H124.933C127.11 54.6695 126.273 55.5053 125.435 55.171H109.861C108.857 55.1708 108.522 54.3353 110.364 54.001C112.373 53.6666 114.048 51.8278 114.048 45.9776V31.7696C114.048 28.0922 113.378 22.4093 106.512 22.5762C96.7998 22.7434 97.6365 33.4408 97.6365 36.9512V46.1446C97.6365 52.6635 99.4786 53.8337 101.488 54.168C103.497 54.5023 102.996 55.5057 101.991 55.5059H86.7518C85.747 55.5059 84.7422 54.8375 86.7518 54.336C88.2589 53.8345 89.9334 53.1652 89.9334 44.8077V30.4327C89.9334 23.5795 85.9145 23.2444 85.077 23.0772C84.2396 22.9101 83.9047 22.4086 85.077 22.0743C86.417 21.74 93.7835 20.5707 94.9568 20.4034C96.1288 20.2363 96.6314 20.737 96.6316 21.2384C96.7991 21.907 97.3016 22.9105 97.3016 23.5792C97.469 24.4147 97.8041 24.2476 98.3064 23.7462C98.6414 23.579 96.2969 20.2355 108.856 20.2354Z" fill="#5A5A5A"/>
<path d="M210.171 17.7286H201.463V0.344797H210.171V17.7286Z" fill="#5A5A5A"/>
<path d="M236.463 17.7286H227.755V0.344797H236.463V17.7286Z" fill="#5A5A5A"/>
<path d="M218.88 2.18366C218.88 2.35176 219.884 4.18897 220.052 4.52351C220.052 4.52351 220.219 4.69048 220.554 4.52351C220.887 4.35694 221.721 3.85904 221.726 3.85554C221.716 3.89771 220.889 7.36481 220.888 7.69929C220.721 8.03359 221.056 8.3685 221.391 8.03425C221.559 7.86709 223.066 6.19538 223.066 6.19538L223.401 7.03132H223.736C223.906 7.03073 225.243 6.69636 225.243 6.69636C225.243 6.69636 224.74 8.36687 224.74 8.53523C224.74 8.70238 224.573 8.86986 224.908 9.20417H225.41C225.379 9.23126 222.563 11.7127 222.396 11.879C222.229 12.0461 222.061 12.0458 222.228 12.5469C222.394 12.8774 222.559 13.5346 222.563 13.5499C222.536 13.543 219.882 12.8819 219.549 12.8819C219.214 12.8819 219.047 12.8817 219.047 13.2159C219.047 13.3835 219.214 16.3744 219.215 16.3917H218.377C218.378 16.3729 218.545 13.5495 218.545 13.2159C218.545 12.8816 218.377 12.8819 218.042 12.8819C217.706 13.0492 215.027 13.5499 215.027 13.5499C215.03 13.5424 215.196 13.0446 215.362 12.5469C215.529 12.0458 215.362 12.0459 215.195 11.879C215.195 11.7118 212.18 9.03718 212.18 9.03718H212.683C213.018 8.86996 213.018 8.36823 213.018 8.36823C212.851 8.20108 212.348 6.52937 212.348 6.52937C212.367 6.53402 213.691 6.86433 214.023 6.86433C214.188 7.19344 214.354 6.87268 214.358 6.86433C214.526 6.69716 214.693 6.19538 214.693 6.19538L216.367 8.03425C216.702 8.20141 216.87 8.0336 216.87 7.69929C216.869 7.36475 216.042 3.89655 216.032 3.85554C216.037 3.85973 216.871 4.52351 217.205 4.52351C217.372 4.85782 217.539 4.85782 217.707 4.52351C217.874 4.18894 218.88 2.18366 218.88 2.18366Z" fill="#5A5A5A"/>
</g>
</g>
</svg>
