<svg preserveAspectRatio="none" overflow="visible" style="display: block;" width="239.662" height="61.3801" viewBox="0 0 239.662 61.3801" fill="none" xmlns="http://www.w3.org/2000/svg">
<g id="NS Gov" clip-path="url(#clip0_0_35)">
<g id="nova-scotia-logo">
<path d="M22.667 36.163L24.3174 36.1298L25.9951 36.0898C26.9072 36.0898 27.3662 36.4497 27.3662 37.1621L27.4004 37.1816C27.4004 37.4545 27.307 37.6745 27.1406 37.8476C26.7878 38.2004 26.188 38.2001 25.6621 38.2001L25.1895 38.2138C24.0647 38.3604 23.9053 39.1923 23.9053 40.5634C23.9053 40.6899 23.9045 40.8238 23.9111 40.957V59.9892C23.9111 60.4086 23.8651 60.7756 23.6055 61.0419C23.3725 61.2814 23.0195 61.3876 22.4873 61.3876C21.4888 61.3876 20.9291 60.6554 20.4365 60.0097L20.2764 59.7968C20.2645 59.782 6.93456 43.153 5.89648 41.8554V53.4384C5.89648 54.2838 5.89733 56.2609 6.14355 57.0068C6.45645 57.9321 7.05531 58.1523 8.06055 58.2255L8.27344 58.2392C8.81261 58.2592 9.94405 58.312 9.94434 59.3369C9.94434 60.0359 9.40521 60.4492 8.49316 60.4492L4.93848 60.2958L1.34375 60.4492C0.504933 60.4492 0.00488281 60.0359 0.00488281 59.3369C0.00514422 58.2987 1.06408 58.2592 1.62988 58.2392L1.85645 58.2255C2.60173 58.1922 2.92152 57.9653 3.16113 57.2997C3.50048 56.3278 3.49378 54.6705 3.48047 53.4658V40.8632C3.49378 39.259 3.40045 38.2808 2.03613 38.1874H1.82227C1.2763 38.1674 0.26477 38.087 0.264648 37.0888C0.264648 36.0904 1.34291 36.0898 1.8623 36.0898H8.51953C9.97747 36.0898 10.1107 36.1902 10.8496 37.1289L11.1094 37.455C11.1286 37.4788 20.3637 48.9064 21.3682 50.1503V41.8554C21.3682 41.1298 21.3686 39.9179 21.0957 39.2988C20.7429 38.5265 20.1235 38.2998 19.3047 38.1933L18.8984 38.1738C18.4058 38.1671 17.587 38.1537 17.5869 37.1953C17.5869 36.0836 18.7452 36.083 19.2979 36.083L22.667 36.163Z" fill="#5A5A5A"/>
<path d="M139.708 35.4843C141.505 35.4843 143.709 35.7907 145.473 36.29C146.611 36.6295 146.698 36.8959 146.885 37.9677L146.904 38.0537L147.204 39.9716L147.224 40.0644L147.363 41.1298C147.363 41.7021 146.951 42.0877 146.332 42.0878C145.527 42.0878 145.041 41.3824 144.481 40.5703C143.569 39.2388 142.431 37.5879 139.375 37.5878C137.098 37.5878 134.854 38.8126 133.39 40.8564C132.105 42.6738 131.366 45.3441 131.366 48.0136C131.366 50.683 132.039 53.2661 133.204 55.1035C134.695 57.4133 136.945 58.7382 139.375 58.7382C140.726 58.7382 142.031 58.265 143.143 57.373C144.268 56.4343 144.954 55.1365 145.553 54.0048C145.746 53.5855 146.079 53.0265 146.784 53.0263L146.771 53.039C147.097 53.0391 147.35 53.1394 147.543 53.3388C147.809 53.6251 147.863 54.0381 147.863 54.4042C147.863 54.5573 147.856 54.6973 147.85 54.8105L147.736 56.3945C147.736 56.4011 147.724 56.5947 147.724 56.5947C147.657 57.7196 147.617 58.3457 146.372 59.0712C143.942 60.5491 140.993 60.8554 138.949 60.8554C134.935 60.8554 131.24 59.8096 128.816 57.9921C125.774 55.7087 123.884 52.1073 123.884 48.3593C123.884 44.6114 125.708 41.1031 128.89 38.7265C131.666 36.696 135.707 35.4843 139.708 35.4843Z" fill="#5A5A5A"/>
<path d="M53.5029 36.0839H53.6826L59.0557 36.2372L63.4424 36.0839H63.5693C64.0287 36.0773 64.6543 36.0712 65.0137 36.4306C65.18 36.597 65.2666 36.8234 65.2666 37.083C65.2664 38.1745 64.155 38.1747 63.4893 38.1747L63.0166 38.1874C62.757 38.2074 62.3975 38.4274 62.3975 38.7802C62.3975 39.133 62.65 39.7323 62.8164 40.1318C62.8164 40.1318 67.1168 50.4019 67.6367 51.6484C68.1349 50.4196 71.7839 41.5548 71.8105 41.4902C72.1433 40.7381 72.5028 39.7395 72.5029 39.2001C72.5029 38.4213 71.8042 38.2341 71.3848 38.1874L70.9717 38.1679C70.4058 38.1546 69.4474 38.1477 69.4473 37.1162C69.4473 36.0845 70.5521 36.0839 70.9717 36.0839L74.2207 36.164L77.4365 36.0839C78.6811 36.0841 78.8145 36.8634 78.8145 37.1962C78.8142 38.0746 77.8624 38.1278 77.3564 38.1611L77.0234 38.1874C75.7985 38.3539 75.3924 39.3399 74.9131 40.4716L74.9062 40.4843C74.9062 40.4843 74.6206 41.1558 74.6201 41.1503C74.614 41.1647 66.8314 59.5423 66.7979 59.624C66.5515 60.3163 66.2848 60.8496 65.3262 60.8496C64.1615 60.8494 63.9348 60.2763 63.6553 59.5507L63.5225 59.2177L55.5801 40.871C55.427 40.4916 54.8946 39.2332 54.4619 38.6806C54.1424 38.3079 53.7697 38.2608 53.1973 38.1943C53.1973 38.1943 53.1175 38.1874 53.1309 38.1874C52.8047 38.1608 51.9317 38.1013 51.9316 37.0429C51.9316 36.7766 52.0191 36.557 52.1855 36.3906C52.525 36.0579 53.0637 36.0706 53.5029 36.0839Z" fill="#5A5A5A"/>
<path d="M114.971 35.4843C116.236 35.4844 118.765 35.844 120.036 36.5029C120.835 36.9289 120.822 37.621 120.809 38.2333V41.1962C120.809 41.6423 120.815 42.188 120.476 42.5341C120.296 42.7137 120.05 42.8075 119.737 42.8076C118.799 42.8076 118.532 41.9413 118.419 41.5751C117.507 38.8726 116.275 37.6679 114.371 37.6679C112.467 37.6679 110.41 38.8528 110.41 40.7568C110.41 42.5342 112.094 43.2334 113.672 43.746L115.596 44.3847L115.583 44.3915C118.838 45.4367 122.573 47.2677 122.573 52.2206C122.573 54.5173 121.435 56.8141 119.438 58.5117C117.56 60.0627 115.15 60.8485 112.281 60.8486C110.364 60.8486 107.394 60.3758 105.75 59.5703C104.465 58.9245 104.465 58.2852 104.479 57.2333V54.6376C104.465 54.0719 104.439 53.2197 104.871 52.7802C105.044 52.6006 105.284 52.5069 105.55 52.5068C106.595 52.5068 106.895 53.6115 107.075 54.2773L107.175 54.6308C107.501 55.789 107.753 56.6948 108.572 57.5136C109.664 58.5653 111.195 58.7851 112.287 58.7851C114.224 58.7851 117.114 57.7993 117.114 55.0898C117.114 52.5601 114.637 51.6081 112.447 50.7626L111.675 50.4628C109.112 49.391 104.824 47.6001 104.824 43.4394C104.824 38.5265 110.091 35.4843 114.971 35.4843Z" fill="#5A5A5A"/>
<path fill-rule="evenodd" clip-rule="evenodd" d="M40.1016 35.4775C47.0384 35.4775 54.4082 39.9108 54.4082 48.1259C54.4082 55.2557 48.4236 60.8415 40.7812 60.8417C37.3396 60.8417 33.4314 59.5834 31.0547 57.7128C28.3186 55.5759 26.6211 51.9605 26.6211 48.2724C26.6211 44.9637 28.052 41.6814 30.5352 39.2714C33.0915 36.7551 36.3069 35.4776 40.0947 35.4775H40.1016ZM39.875 37.4345C35.1021 37.4349 33.8369 43.7854 33.8369 47.1406C33.8369 49.8168 34.4102 52.3729 35.502 54.5165C36.3474 56.1409 38.2177 58.8505 41.2334 58.8505L41.2402 58.8574C46.0134 58.8573 47.2783 52.4799 47.2783 49.1113C47.2783 45.3033 45.4671 37.4345 39.875 37.4345Z" fill="#5A5A5A"/>
<path fill-rule="evenodd" clip-rule="evenodd" d="M127.546 11.2636C141.986 2.42276 153.224 3.68159 153.224 3.68159C153.696 5.31951 153.756 10.6718 153.756 10.6718C135.555 12.6357 130.868 18.5341 130.868 18.5341C151.392 26.4626 160.246 32.8864 162.59 35.2499V35.2568C169.214 35.6629 175.885 40.0505 175.885 47.8662C175.885 54.9959 169.899 60.581 162.257 60.581C158.815 60.5809 154.908 59.3227 152.531 57.4521C149.795 55.3152 148.098 51.7006 148.098 48.0126C148.098 44.704 149.522 41.4284 152.012 39.0185C153.769 37.2876 155.839 36.1552 158.189 35.6093C158.189 35.6093 158.276 35.5829 158.449 35.5429C152.065 33.2062 145.487 32.4277 145.487 32.4277C135.794 26.849 129.211 25.4039 128.179 25.1376C130.509 21.8756 128.625 18.0341 128.625 18.0341C127.447 15.0118 127.426 12.5218 127.546 11.2636ZM161.345 37.1679C156.565 37.1683 155.307 43.5188 155.307 46.874C155.307 49.5635 155.887 52.1132 156.972 54.2568C157.824 55.8745 159.701 58.5908 162.71 58.5908V58.5839C167.49 58.5839 168.748 52.2131 168.748 48.8378C168.748 45.0299 166.937 37.1679 161.345 37.1679Z" fill="#5A5A5A"/>
<path fill-rule="evenodd" clip-rule="evenodd" d="M84.4062 35.4775C85.6244 35.4775 85.8576 35.9231 86.1904 36.7617L86.3643 37.1816C86.4029 37.2728 94.1151 55.4577 94.1592 55.5683C94.3189 55.961 94.7185 56.9265 95.0713 57.4326C95.4906 58.0183 95.744 58.1717 96.3828 58.205L96.6299 58.2187V58.2246C97.1558 58.2378 98.0409 58.212 98.041 59.3232C98.041 60.4348 96.8294 60.4355 96.4365 60.4355L91.8232 60.2822L86.2979 60.4355C85.2859 60.4355 84.7725 60.0621 84.7725 59.3232C84.7726 58.4047 85.6849 58.3116 86.3506 58.2451C87.1494 58.1652 87.416 58.0785 87.416 57.7324C87.416 57.3063 87.209 56.7735 87.0625 56.414L86.4971 55.0029L86.417 54.7763C86.1109 53.9576 86.0709 53.2584 84.6201 53.3115H79.2344C78.1626 53.3048 78.022 53.8182 77.749 54.5439L77.6758 54.7431L77.5635 55.0761C77.4436 55.429 77.197 56.1151 77.1504 56.621C77.0508 57.7523 78.0028 57.8785 79.1943 58.0449C80.0064 58.158 81.0184 58.2983 81.0186 59.3232C81.0186 59.7426 80.8118 60.4353 79.4541 60.4355L75.8984 60.3622L72.3438 60.4355C71.1188 60.4355 70.8594 59.8291 70.8594 59.3232C70.8595 58.4247 71.6718 58.2986 72.1777 58.2187C73.2425 58.039 73.496 57.9921 73.9951 57.0937C74.348 56.4479 74.8137 55.2025 75.1865 54.1972L75.5654 53.1923L77.6426 47.9726L82.0371 37.6005L82.2227 37.1415C82.6021 36.1763 82.8821 35.4776 84.4062 35.4775ZM78.9277 50.9423H85.0322L81.9834 43.3925L78.9277 50.9423Z" fill="#5A5A5A"/>
<path d="M178.533 36.0107C180.87 35.9175 183.886 36.4098 198.318 36.0703C198.318 36.0703 199.477 36.0703 199.344 37.1289L199.337 37.122L198.925 41.1962C198.872 41.7821 198.778 42.7675 197.806 42.7675C197.353 42.7674 196.734 42.5342 196.342 41.4365C195.297 38.8401 194.93 38.2275 191.907 38.2275C191.437 38.2276 191.202 38.4869 191.202 39.0058V55.3828C191.189 57.3134 191.189 57.8999 193.166 58.2128C193.645 58.2861 194.644 58.4389 194.644 59.3974C194.644 59.7036 194.524 60.4296 193.419 60.4296L187.594 60.2763L182.148 60.4296C181.137 60.4296 180.93 59.8634 180.93 59.3974C180.93 58.958 181.15 58.3926 182.215 58.2128C184.245 57.8733 184.332 57.5462 184.332 55.5956V38.9462C184.319 38.6666 184.305 38.3733 184.265 38.3134C184.19 38.2671 183.818 38.2675 183.586 38.2675C181.243 38.2675 180.264 39.1324 178.853 41.1894C178.207 42.1613 177.595 42.6542 177.042 42.6542C176.43 42.6542 176.05 42.2151 176.05 41.5097L176.203 40.7499C176.206 40.7412 176.25 40.5911 176.25 40.5976L177.229 36.8164C177.229 36.8164 177.501 35.9974 178.533 36.0107Z" fill="#5A5A5A"/>
<path fill-rule="evenodd" clip-rule="evenodd" d="M226.027 35.4765C227.246 35.4765 227.479 35.9228 227.806 36.7617L227.979 37.1806C227.979 37.1806 235.763 55.5346 235.774 55.5683C235.934 55.9611 236.334 56.9266 236.687 57.4326C237.106 58.0247 237.358 58.1777 237.997 58.2177H238.237C238.763 58.231 239.648 58.2049 239.648 59.3164C239.648 60.4281 238.437 60.4287 238.044 60.4287L233.431 60.2753L227.912 60.4287C226.9 60.4287 226.388 60.0553 226.388 59.3164C226.388 58.3979 227.299 58.3048 227.965 58.2382C228.764 58.1583 229.03 58.0716 229.03 57.7255C229.03 57.2995 228.824 56.7667 228.678 56.4072L228.111 54.996L228.031 54.7695C227.725 53.9508 227.685 53.2515 226.234 53.3046H220.849C219.777 53.298 219.637 53.8114 219.364 54.5371L219.291 54.7363L219.178 55.0693C219.058 55.422 218.805 56.1073 218.758 56.6132C218.651 57.7449 219.61 57.8716 220.802 58.038C221.614 58.1512 222.626 58.2913 222.626 59.3164C222.626 59.7291 222.426 60.4286 221.062 60.4287L217.507 60.3554L213.951 60.4287C213.752 60.4353 213.586 60.4287 213.433 60.4287L207.607 60.2753L202.161 60.4287C201.156 60.4285 200.943 59.869 200.943 59.3964C200.943 58.9571 201.169 58.3909 202.228 58.2177C204.351 57.8649 204.352 57.5257 204.352 55.3222V41.0361C204.372 39.1055 204.371 38.526 202.421 38.1865L202.281 38.166C201.815 38.0927 200.95 37.9665 200.95 37.121C200.95 36.0894 201.862 36.0898 202.168 36.0898L207.993 36.2421L210.709 36.1621L213.398 36.0898C214.237 36.0898 214.657 36.4354 214.657 37.121C214.657 37.9665 213.838 38.1066 213.339 38.1865C211.475 38.4894 211.242 38.8686 211.222 40.3769V55.3886C211.215 57.3191 211.215 57.9048 213.186 58.2177C213.272 58.231 213.352 58.2443 213.525 58.2509C213.665 58.2642 213.732 58.2642 213.878 58.2509C214.783 58.1511 215.11 57.9915 215.609 57.0927C215.962 56.4469 216.428 55.2023 216.801 54.1972L217.181 53.1923L219.264 47.9726L223.658 37.6005L223.844 37.1415C224.223 36.1763 224.503 35.4766 226.027 35.4765ZM220.549 50.9355H226.653L223.611 43.3857L220.549 50.9355Z" fill="#5A5A5A"/>
<path d="M77.5107 0.020453C77.5941 0.0140179 91.0221 -1.00454 109.438 9.92573C110.331 14.8455 111.969 18.8339 111.969 18.8339V18.8271C113.1 21.5032 114.918 23.3277 116.542 24.5126C114.838 25.1451 107.122 28.3601 102.389 35.9824C102.389 35.9824 93.7869 38.2458 93.3076 38.4921C93.3055 38.459 93.1653 36.3091 92.7822 33.7529C92.7822 33.7529 99.4527 24.1529 110.098 19.08C110.098 19.08 102.475 11.5306 81.7578 7.79584C80.067 4.88015 78.6513 2.28826 77.5107 0.020453Z" fill="#5A5A5A"/>
<path d="M114.065 10.9658C114.068 10.9652 114.5 10.882 115.037 11.6249C115.037 11.6249 115.297 11.4849 115.091 11.1787C115.1 11.1816 115.806 11.4032 115.23 12.038C115.221 12.0457 114.856 12.3606 115.757 13.6689C115.77 13.6916 116.407 14.8134 116.282 15.3867L116.655 15.4863C117.281 15.666 117.926 15.8524 117.221 15.0537C117.221 15.0537 117.055 14.5477 117.367 14.4277C117.367 14.4277 117.474 13.9683 118.014 14.0615C118.014 14.0615 117.993 13.7624 118.679 13.8222C118.679 13.8222 118.439 13.482 117.653 13.4687C117.63 13.4692 116.499 13.4889 116.835 12.8828C116.835 12.8828 116.915 13.3425 117.367 13.1298C117.367 13.1298 117.907 13.0227 118.413 13.3623C118.426 13.3645 118.753 13.42 118.799 13.3027L118.213 12.996C118.203 12.9922 117.539 12.7337 117.407 12.3769C117.395 12.3642 116.842 11.7991 117.395 11.8583C117.408 11.8533 117.946 11.6613 118.393 11.8847C118.393 11.8847 119.285 11.798 119.285 11.3388C119.301 11.3491 119.794 11.6786 120.017 12.1044L120.31 12.0439C120.31 12.0439 120.397 12.9301 120.696 13.0566L121.056 13.4228C121.049 13.4265 120.796 13.5769 120.815 13.6953C120.829 13.8217 121.455 14.4677 121.455 14.4677C121.453 14.4722 121.378 14.6206 121.182 14.5878C121.162 14.6059 120.526 15.2165 121.575 16.2919C121.575 16.2944 121.573 16.3137 121.555 16.3447C121.123 16.4757 121.161 17.0448 121.162 17.0634C121.189 18.6279 122.44 19.6806 122.44 19.6806C122.752 20.085 123.657 21.1481 123.665 21.1581C124.138 21.744 124.777 21.6845 124.777 21.6845C125.762 21.4447 124.891 19.8662 124.891 19.8662C123.479 19.5 123.945 20.0665 124.052 20.1796C123.017 19.1584 123.99 19.2599 123.998 19.2607C124.326 19.2738 124.673 19.4676 124.684 19.4736C124.486 19.0661 124.062 18.5872 124.052 18.5751C123.426 17.8961 122.939 17.057 122.687 16.2714C122.221 14.8075 122.846 14.1883 122.893 13.6425C122.966 12.817 121.947 12.5634 121.947 12.5634C123.199 11.8578 124.325 12.9033 124.518 13.6689C124.744 14.5676 124.364 15.5927 124.364 15.5927C123.539 17.4168 125.21 19.3876 125.21 19.3876C125.887 19.162 125.313 18.5062 125.31 18.5019C126.767 18.9479 125.955 19.4472 125.955 19.4472C125.509 19.6668 125.556 19.8203 125.556 19.8203C125.983 21.5776 125.305 21.9231 125.29 21.9306C125.528 22.4806 125.338 22.6344 125.336 22.6357C124.981 21.7162 124.004 22.0412 123.979 22.0497C124.303 23.9039 125.898 23.0114 125.915 23.0019C125.98 23.5659 125.774 23.5806 125.763 23.581C125.257 23.6742 125.763 23.9208 125.763 23.9208C124.651 24.3802 125.456 24.6865 125.456 24.6865H124.891C124.811 24.8063 124.93 24.9599 124.93 24.9599C124.703 24.7802 124.331 24.9599 124.331 24.9599C124.673 25.2055 124.533 25.2939 124.524 25.2988C123.594 25.1725 124.409 25.9089 124.411 25.9111C124.218 25.9777 124.091 26.5576 124.091 26.5576C123.971 26.0716 123.512 25.9443 123.512 25.9443C123.113 25.978 123.346 26.8369 123.346 26.8369C122.174 26.0047 122.873 25.8515 122.873 25.8515C122.873 25.7583 122.753 25.6982 122.753 25.6982C122.2 26.4557 121.692 26.2811 121.682 26.2773C121.382 25.6583 122.041 25.4785 122.041 25.4785C121.864 25.262 121.37 25.4078 121.355 25.4121C121.356 24.9297 121.952 25.1096 121.961 25.1122C122.465 25.3938 122.776 25.3019 122.786 25.2988C122.747 24.5651 123.133 24.4241 123.146 24.4199C123.631 24.0537 123.759 23.5478 123.759 23.5478C122.92 23.5811 122.547 23.4013 122.547 23.4013C122.161 23.2415 121.994 22.9822 121.808 22.5761C121.788 22.4097 121.608 22.4094 121.435 22.3828C121.448 22.3957 121.259 22.3834 121.249 22.3828C119.234 21.9321 120.505 23.3485 120.517 23.3613L120.51 23.3681C119.944 23.5079 119.817 23.2949 119.817 23.2949C119.518 23.5146 119.185 23.2949 119.185 23.2949C119.02 22.6226 118.81 23.0409 118.806 23.0488C118.539 22.3364 118.047 22.9892 118.047 22.9892C117.84 22.2835 117.36 22.1904 117.36 22.1904C117.025 22.7614 116.639 22.5029 116.629 22.496C117.188 22.0635 116.715 21.8173 116.715 21.8173C116.635 22.0901 116.315 21.997 116.315 21.997C115.916 21.6909 115.757 21.9374 115.757 21.9374C115.415 21.2333 116.497 21.3812 116.521 21.3847C116.56 21.3268 116.456 21.2126 116.449 21.205C116.226 21.1919 116.003 20.9915 115.996 20.9853C115.885 20.7756 115.509 20.6815 115.497 20.6787C116.052 20.1508 116.364 20.6634 116.369 20.6718C116.576 21.1378 117.314 21.3915 117.314 21.3915C117.854 21.4848 118.359 21.8242 118.359 21.8242C118.662 22.1265 118.842 21.5839 118.846 21.5712C118.551 20.7267 119.054 20.4484 119.071 20.4394C119.222 20.2093 119.822 20.3299 119.837 20.333C119.85 20.3396 120.07 20.3862 120.097 20.4062C120.19 20.3796 120.523 20.3528 121.022 20.3662C120.019 19.6601 119.278 18.8952 119.265 18.8818C119.05 18.9404 118.943 18.8456 118.938 18.8417C119.064 18.6309 118.38 18.3676 118.366 18.3622C118.346 18.4823 118.153 18.955 118.153 18.955C118.12 18.6173 117.711 18.793 117.707 18.7949C117.62 19.0877 117.327 18.9482 117.327 18.9482C117.443 18.858 117.434 18.7428 117.434 18.7353C116.98 18.6105 116.838 19.0314 116.835 19.041C116.698 18.5899 116.387 18.7557 116.376 18.7617C116.17 19.2543 115.949 19.1542 115.949 19.1542C116.174 18.6579 115.676 18.7276 115.67 18.7285H115.357C115.37 18.9174 115.242 18.9724 115.237 18.9746C115.104 19.0811 114.791 19.0615 114.791 19.0615C114.658 18.6887 115.011 18.5683 115.011 18.5683C115.097 18.5417 114.978 18.3886 114.978 18.3886C114.279 18.5351 114.179 18.2021 114.179 18.2021C114.099 18.0756 113.979 17.9228 113.979 17.9228L114.698 18.0556C114.744 17.7695 114.231 17.5898 114.231 17.5898C114.338 17.2836 114.771 17.5898 114.771 17.5898C115.002 17.866 115.154 18.0188 115.157 18.0224C116.395 18.0623 117.567 17.2304 117.567 17.2304C117.507 17.1372 117.533 17.1572 117.507 17.0839C117.081 17.1171 116.675 16.9971 116.436 16.8574C116.362 16.8041 116.183 16.7106 115.79 16.4111C115.79 16.4111 115.084 16.3783 114.744 16.0654C114.744 16.0654 115.271 16.1249 115.164 15.7587C115.159 15.751 114.992 15.4791 114.638 15.4462C114.638 15.4462 115.25 15.4791 114.638 14.374C114.638 14.374 115.19 14.0077 114.445 12.8701C114.405 12.9033 113.479 12.943 113.366 12.3505C113.366 12.3505 113.553 12.3701 113.772 12.3701C113.779 12.3641 113.921 12.2283 114.019 12.4101C114.019 12.4101 114.485 12.3834 114.006 12.0439C114.006 12.0439 113.72 12.1371 113.573 11.8242C113.573 11.809 113.571 11.4235 113.134 11.332C113.145 11.3227 113.571 10.9763 114.405 11.7646C114.415 11.7582 114.693 11.5738 114.065 10.9658Z" fill="#5A5A5A"/>
</g>
</g>
<defs>
<clipPath id="clip0_0_35">
<rect width="239.662" height="61.3801" fill="white"/>
</clipPath>
</defs>
</svg>
