<svg preserveAspectRatio="none" overflow="visible" style="display: block;" width="192" height="80" viewBox="0 0 192 80" fill="none" xmlns="http://www.w3.org/2000/svg">
<g id="objects">
<g id="Union">
<path d="M53.9426 36.8191C55.2052 36.7379 56.4488 37.1874 57.3719 38.0579L57.3813 38.0962C58.2231 39.0862 58.7158 40.3157 58.7923 41.6119H48.8723C48.9154 41.1001 49.0113 40.5976 49.1596 40.1098C49.3222 39.5359 49.595 39.0051 49.9728 38.546C50.3937 38.0342 50.9244 37.6131 51.5174 37.3166C52.2732 36.9579 53.1055 36.7904 53.9426 36.8191Z" fill="#8C8C8C"/>
<path d="M29.1668 41.3728C30.4103 41.3106 31.6395 41.6645 32.663 42.3723H32.6677C33.5525 43.0515 34.0021 44.1851 34.0021 45.7634C34.0308 46.4426 33.8921 47.1268 33.6051 47.7439C33.3468 48.2412 32.9691 48.662 32.5004 48.9681C32.0221 49.2885 31.4814 49.5134 30.917 49.6234C30.3001 49.7573 29.664 49.8244 29.0328 49.8196V49.8098H21.8247V41.3728H29.1668Z" fill="#8C8C8C"/>
<path d="M28.143 29.6068C28.7264 29.6021 29.3052 29.6497 29.8791 29.7549C30.41 29.8362 30.9221 30.0179 31.3813 30.2953C31.8165 30.5488 32.1799 30.9174 32.4238 31.3621C32.6964 31.9073 32.8303 32.5147 32.8064 33.1268C32.9116 34.1886 32.4813 35.2315 31.6587 35.9107H31.6536C30.7736 36.518 29.7167 36.8194 28.6502 36.7668H21.8345V29.6068H28.143Z" fill="#8C8C8C"/>
<path fill-rule="evenodd" clip-rule="evenodd" d="M40 7.62939e-06C62.0878 7.62939e-06 80 17.9075 80 40C80 62.0926 62.0926 80 40 80C17.9074 80 0 62.0926 0 40C2.95826e-05 17.9075 17.9075 3.72084e-05 40 7.62939e-06ZM54.1336 32.1894C52.5457 32.1703 50.9674 32.4813 49.5038 33.0983C48.155 33.6723 46.9257 34.5142 45.9021 35.5664C44.8738 36.6473 44.0845 37.9243 43.5728 39.3209C43.0227 40.8036 42.7453 42.3773 42.7549 43.9604C42.7358 45.5722 43.0085 47.1744 43.5489 48.6953C44.0464 50.0632 44.8116 51.3167 45.8017 52.3881C46.8109 53.4308 48.0307 54.2483 49.3843 54.7745C50.8957 55.3532 52.5029 55.6357 54.1196 55.6166C56.3866 55.6788 58.6202 55.0761 60.5477 53.8805C62.3317 52.7326 63.6377 50.8336 64.5034 48.16H59.1366C58.8257 48.9777 58.252 49.6664 57.506 50.1255C55.2819 51.5126 52.4263 51.3501 50.3792 49.7192L50.3693 49.7094C49.3411 48.5232 48.8055 46.9926 48.8677 45.4238H64.8813V45.4336C65.0009 43.774 64.8571 42.1047 64.4553 40.4881C64.1014 38.9576 63.4463 37.5081 62.5328 36.2311C61.6193 34.9971 60.433 33.9928 59.0651 33.2945C57.5393 32.5244 55.8411 32.1463 54.1336 32.1894ZM29.5349 24.3932H15.0809V55.0519H29.9319C31.2855 55.0519 32.6295 54.8797 33.94 54.5353C35.1836 54.2196 36.3651 53.6841 37.4221 52.9523C38.4457 52.2397 39.2825 51.2878 39.8613 50.183L39.8711 50.1736C41.2246 47.2991 41.0427 43.9414 39.3975 41.2247C38.3787 39.8042 36.8815 38.7902 35.1787 38.3741C36.4174 37.8288 37.4936 36.9629 38.2923 35.8677C39.0289 34.715 39.3925 33.3661 39.3447 32.003C39.3829 30.7642 39.1438 29.5395 38.6464 28.406C38.192 27.459 37.4984 26.6413 36.6328 26.0434C35.6953 25.4216 34.6432 24.991 33.5383 24.7757C32.2182 24.5031 30.8789 24.3695 29.5349 24.3839V24.3932ZM47.6098 26.8613V29.8651H60.0409V26.8613H47.6098Z" fill="#8C8C8C"/>
</g>
<path id="Vector" d="M152 0C129.907 0 112 17.9074 112 40C112 62.0925 129.907 80 152 80C174.093 80 192 62.0925 192 40C192 17.9074 174.093 0 152 0ZM138.799 61.8534C135.953 61.8199 133.107 61.8295 130.261 61.8534C129.807 61.8534 129.668 61.7434 129.668 61.2699C129.683 51.13 129.683 40.9901 129.668 30.8502C129.668 30.4293 129.769 30.281 130.214 30.2858C133.102 30.3049 135.987 30.3097 138.876 30.2858C139.43 30.281 139.507 30.4962 139.502 30.9697C139.488 36.0206 139.493 41.0666 139.493 46.1174C139.493 51.1682 139.483 56.133 139.502 61.1407C139.502 61.6956 139.368 61.8677 138.789 61.8582L138.799 61.8534ZM134.6 25.9381C131.505 25.9381 128.927 23.3744 128.917 20.2798C128.908 17.1517 131.481 14.5737 134.609 14.5737C137.718 14.5737 140.282 17.1278 140.282 20.2272C140.282 23.3696 137.732 25.9333 134.595 25.9333L134.6 25.9381ZM176.317 61.2029C176.317 61.7195 176.173 61.8582 175.661 61.8534C172.815 61.8295 169.97 61.8295 167.124 61.8534C166.622 61.8534 166.516 61.7003 166.516 61.2316C166.531 55.9751 166.535 50.7186 166.516 45.4574C166.516 44.1421 166.43 42.822 166.057 41.5401C165.378 39.1821 163.685 37.9768 161.217 38.1107C157.84 38.2877 156.085 39.9617 155.654 43.3911C155.554 44.209 155.501 45.0317 155.501 45.8591C155.501 50.9721 155.496 56.0851 155.515 61.1981C155.515 61.7099 155.391 61.8582 154.87 61.8534C152.005 61.8295 149.135 61.8295 146.27 61.8534C145.811 61.8534 145.677 61.7338 145.677 61.2699C145.691 51.1443 145.691 41.0236 145.677 30.898C145.677 30.3958 145.84 30.281 146.313 30.2858C149.035 30.3049 151.761 30.3097 154.482 30.2858C154.985 30.2858 155.114 30.4436 155.104 30.9171C155.075 32.1272 155.095 33.3373 155.095 34.5474C155.75 33.8108 156.295 33.0599 156.97 32.4238C159.045 30.4675 161.499 29.4822 164.364 29.5062C165.938 29.5205 167.497 29.6353 169.013 30.0705C172.485 31.075 174.504 33.4665 175.465 36.8576C176.187 39.4021 176.321 42.0136 176.326 44.6299C176.336 50.1542 176.312 55.6786 176.326 61.2077L176.317 61.2029Z" fill="#8C8C8C"/>
</g>
</svg>
