<?xml version="1.0" encoding="utf-8"?>
<!-- Generator: Adobe Illustrator 26.4.0, SVG Export Plug-In . SVG Version: 6.00 Build 0)  -->
<svg version="1.1" id="Layer_1" xmlns="http://www.w3.org/2000/svg" xmlns:xlink="http://www.w3.org/1999/xlink" x="0px" y="0px"
	 viewBox="0 0 62 62" style="enable-background:new 0 0 62 62;" xml:space="preserve">
<style type="text/css">
	.st0{fill:#00B2FE;}
</style>
<path d="M31,0C13.9,0,0,13.9,0,31s13.9,31,31,31s31-13.9,31-31S48.1,0,31,0L31,0z"/>
<g>
	<path class="st0" d="M24.1,37.7h-5.9v9.6h5.9V37.7z"/>
	<path class="st0" d="M38.6,36.6c-2.7,1-5.5,1.1-5.5,1.1l6.7,9.7h6.3L38.6,36.6z"/>
	<path class="st0" d="M43,31c1.2-1.7,1.7-3.8,1.7-6.2c0-2.3-0.5-4.3-1.6-6c-1.1-1.7-2.7-3-4.7-3.9c-2-0.9-4.4-1.4-7.2-1.4H18.2v22.5
		h13.1c3.7,0,6.7-1.2,6.7-1.2C40.2,34.1,41.8,32.8,43,31z M36.8,29.6c-1.3,1.1-3.3,1.7-5.8,1.7h-6.9V18.6H31c2.6,0,4.5,0.5,5.8,1.6
		c1.3,1.1,2,2.6,2,4.7S38.1,28.5,36.8,29.6z"/>
</g>
</svg>
