<svg width="62" height="62" viewBox="0 0 62 62" fill="none" xmlns="http://www.w3.org/2000/svg">
<circle cx="31" cy="31" r="27.625" fill="#F2F2F2"/>
<path d="M31 4.20253C38.1509 4.20253 44.8906 6.99241 49.9418 12.0582C54.9929 17.1241 57.7975 23.8491 57.7975 31C57.7975 38.1509 55.0076 44.8906 49.9418 49.9418C44.8759 55.0076 38.1509 57.7975 31 57.7975C23.8491 57.7975 17.1094 55.0076 12.0582 49.9418C6.99241 44.8759 4.20253 38.1509 4.20253 31C4.20253 23.8491 6.99241 17.1094 12.0582 12.0582C17.1241 7.00709 23.8491 4.20253 31 4.20253ZM31 2C14.9803 2 2 14.9803 2 31C2 47.0197 14.9803 60 31 60C47.0197 60 60 47.0197 60 31C60 14.9803 47.0197 2 31 2Z" fill="black"/>
<path fill-rule="evenodd" clip-rule="evenodd" d="M49.0579 49.0579L49.0592 49.0566C53.8892 44.2406 56.5475 37.8196 56.5475 31C56.5475 24.183 53.8763 17.7745 49.0566 12.9408C44.2406 8.1108 37.8196 5.45253 31 5.45253C24.183 5.45253 17.7745 8.12375 12.9408 12.9434C8.1108 17.7594 5.45253 24.1804 5.45253 31C5.45253 37.8185 8.11011 44.2259 12.9421 49.0579L12.9434 49.0592C17.7594 53.8892 24.1804 56.5475 31 56.5475C37.8185 56.5475 44.2259 53.8899 49.0579 49.0579ZM49.9418 49.9418C55.0076 44.8906 57.7975 38.1509 57.7975 31C57.7975 23.8491 54.9929 17.1241 49.9418 12.0582C44.8906 6.9924 38.1509 4.20253 31 4.20253C23.8491 4.20253 17.1241 7.00709 12.0582 12.0582C6.9924 17.1094 4.20253 23.8491 4.20253 31C4.20253 38.1509 6.9924 44.8759 12.0582 49.9418C17.1094 55.0076 23.8491 57.7975 31 57.7975C38.1509 57.7975 44.8759 55.0076 49.9418 49.9418ZM0.75 31C0.75 14.2899 14.2899 0.75 31 0.75C47.7101 0.75 61.25 14.2899 61.25 31C61.25 47.7101 47.7101 61.25 31 61.25C14.2899 61.25 0.75 47.7101 0.75 31ZM2 31C2 14.9803 14.9803 2 31 2C47.0197 2 60 14.9803 60 31C60 47.0197 47.0197 60 31 60C14.9803 60 2 47.0197 2 31Z" fill="black"/>
<path d="M24.6369 38.127H18.8411V47.5917H24.6369V38.127Z" fill="black"/>
<path d="M38.9558 36.9745C36.277 37.9486 33.5172 38.0947 33.5172 38.0947L40.1409 47.6082H46.375L38.9558 36.9745Z" fill="black"/>
<path d="M43.2418 31.5519C44.3782 29.8635 44.9627 27.8341 44.9627 25.4801C44.9627 23.191 44.4269 21.2104 43.3554 19.5545C42.2839 17.8823 40.7417 16.616 38.7448 15.7231C36.7317 14.8302 34.3777 14.3918 31.6827 14.3918H18.8411V36.5034H31.6827C35.2868 36.5034 38.3227 35.3508 38.3227 35.3508C40.4657 34.5066 42.1054 33.2403 43.2418 31.5519ZM37.1538 30.0907C35.8388 31.1785 33.9231 31.7142 31.4067 31.7142H24.6369V19.2785H31.4067C33.9393 19.2785 35.855 19.8142 37.1538 20.8857C38.4688 21.9572 39.1182 23.4832 39.1182 25.4801C39.1182 27.477 38.4688 29.003 37.1538 30.0907Z" fill="black"/>
</svg>
