<svg width="1200" height="630" viewBox="0 0 1200 630" fill="none" xmlns="http://www.w3.org/2000/svg">
<rect width="1200" height="630" fill="black"/>
<path fill-rule="evenodd" clip-rule="evenodd" d="M671.275 453.955C669.337 453.308 667.796 452.462 666.653 451.417L668.144 448.282C669.188 449.228 670.579 450.024 672.269 450.621C673.959 451.218 675.649 451.517 677.389 451.517C679.725 451.517 681.465 451.119 682.608 450.323C683.751 449.526 684.347 448.482 684.347 447.188C684.347 446.242 684.049 445.446 683.403 444.849C682.757 444.252 682.011 443.804 681.067 443.456C680.123 443.107 678.83 442.759 677.14 442.361C675.053 441.863 673.313 441.366 672.021 440.818C670.729 440.321 669.635 439.525 668.691 438.48C667.746 437.435 667.299 435.992 667.299 434.2C667.299 432.708 667.697 431.364 668.492 430.17C669.287 428.976 670.48 428.03 672.071 427.284C673.661 426.537 675.649 426.189 678.035 426.189C679.675 426.189 681.315 426.388 682.906 426.836C684.496 427.284 685.888 427.881 687.031 428.677L685.689 431.862C684.497 431.115 683.254 430.568 681.912 430.17C680.57 429.772 679.278 429.573 677.985 429.573C675.699 429.573 674.009 429.971 672.866 430.817C671.723 431.663 671.176 432.708 671.176 434.001C671.176 434.947 671.474 435.743 672.12 436.34C672.766 436.937 673.562 437.385 674.506 437.733C675.45 438.082 676.743 438.43 678.383 438.778C680.47 439.276 682.21 439.773 683.453 440.321C684.745 440.818 685.839 441.615 686.733 442.66C687.678 443.705 688.125 445.098 688.125 446.889C688.125 448.382 687.727 449.726 686.932 450.92C686.137 452.114 684.894 453.109 683.304 453.806C681.663 454.502 679.675 454.851 677.289 454.851C675.301 454.95 673.263 454.652 671.275 453.955ZM510.384 454.652L510.334 434.2L500.194 451.218H498.355L488.216 434.3V454.602H484.388V426.537H487.669L499.349 446.242L510.881 426.537H514.161L514.211 454.602H510.384V454.652ZM467.936 454.651V451.168V451.118H451.633V442.062H465.7V438.678H451.633V430.07H467.39V426.587H447.607V454.651H467.936ZM421.165 446.043L427.229 454.652H431.603L424.942 445.247C426.931 444.55 428.471 443.456 429.515 441.913C430.559 440.42 431.106 438.529 431.106 436.39C431.106 433.354 430.062 430.966 427.974 429.224C425.887 427.483 423.054 426.637 419.425 426.637H408.49V454.701H412.517V446.143H419.425C419.733 446.143 420.161 446.113 420.684 446.076L420.684 446.076L420.686 446.076L420.686 446.076L420.687 446.076L420.691 446.076L420.693 446.076L420.694 446.076C420.844 446.065 421.001 446.054 421.165 446.043ZM427.08 436.39C427.08 438.43 426.434 439.973 425.092 441.067C423.75 442.162 421.811 442.709 419.276 442.709H412.467V430.07H419.276C421.811 430.07 423.75 430.618 425.092 431.712C426.434 432.807 427.08 434.35 427.08 436.39ZM543.387 454.652V444.948L554.471 426.637H550.495L541.498 441.416L532.552 426.637H528.277L539.411 444.899V454.652H543.387ZM589.313 426.587H601.143C604.125 426.587 606.71 427.184 609.046 428.328C611.332 429.522 613.122 431.164 614.414 433.254C615.656 435.394 616.303 437.832 616.303 440.569C616.303 443.306 615.656 445.744 614.414 447.884C613.122 450.024 611.382 451.666 609.046 452.81C606.759 454.004 604.125 454.552 601.143 454.552H589.313V426.587ZM600.894 451.168C603.181 451.168 605.169 450.72 606.859 449.824C608.549 448.929 609.891 447.685 610.835 446.142C611.78 444.55 612.227 442.709 612.227 440.619C612.227 438.529 611.78 436.688 610.835 435.096C609.891 433.503 608.598 432.259 606.859 431.413C605.119 430.518 603.131 430.07 600.894 430.07H593.339V451.168H600.894ZM652.736 454.651V451.168V451.118H636.433V442.062H650.499V438.678H636.433V430.07H652.189V426.587H632.407V454.651H652.736ZM708.106 426.587H704.08V454.651H708.106V426.587ZM745.931 440.47H749.758V451.417C748.366 452.562 746.776 453.457 744.937 454.054C743.098 454.652 741.159 455 739.171 455C736.338 455 733.803 454.403 731.517 453.159C729.23 451.915 727.491 450.223 726.149 448.034C724.856 445.844 724.21 443.406 724.21 440.669C724.21 437.932 724.856 435.494 726.149 433.305C727.441 431.115 729.23 429.423 731.517 428.179C733.803 426.935 736.388 426.338 739.221 426.338C741.458 426.338 743.495 426.686 745.334 427.433C747.173 428.179 748.714 429.224 750.007 430.667L747.521 433.155C745.285 431.016 742.551 429.921 739.42 429.921C737.282 429.921 735.394 430.369 733.654 431.314C731.964 432.26 730.622 433.504 729.678 435.146C728.733 436.788 728.236 438.629 728.236 440.719C728.236 442.759 728.733 444.6 729.678 446.242C730.622 447.884 731.964 449.178 733.654 450.123C735.344 451.069 737.233 451.517 739.37 451.517C741.855 451.517 744.042 450.92 745.931 449.725V440.47ZM791.509 454.651V426.587H787.483V447.486L770.683 426.587H767.403V454.651H771.429V433.752L788.229 454.651H791.509Z" fill="#F2F2F2"/>
<path fill-rule="evenodd" clip-rule="evenodd" d="M664.118 209.086C647.02 191.918 624.206 182.464 600 182.464C575.794 182.464 553.03 191.968 535.882 209.086C518.734 226.203 509.29 249.043 509.29 273.276C509.29 297.509 518.734 320.299 535.882 337.467C552.98 354.634 575.794 364.088 600 364.088C624.206 364.088 646.97 354.634 664.118 337.467C681.266 320.349 690.71 297.509 690.71 273.276C690.71 249.043 681.216 226.253 664.118 209.086ZM501.835 273.276C501.835 218.988 545.773 175 600 175C654.227 175 698.165 218.988 698.165 273.276C698.165 327.564 654.227 371.552 600 371.552C545.773 371.552 501.835 327.564 501.835 273.276ZM562.871 295.917H580.615V324.927H562.871V295.917ZM624.454 292.384C616.253 295.37 607.803 295.817 607.803 295.817L628.083 324.977H647.169L624.454 292.384ZM642.845 257.154C642.845 264.369 641.055 270.589 637.576 275.764C634.097 280.939 629.077 284.82 622.516 287.408C622.516 287.408 613.221 290.941 602.187 290.941H562.871V223.167H602.187C610.438 223.167 617.645 224.511 623.808 227.248C629.922 229.985 634.644 233.866 637.924 238.991C641.204 244.067 642.845 250.137 642.845 257.154ZM601.342 276.261C609.046 276.261 614.911 274.619 618.937 271.285C622.963 267.952 624.951 263.274 624.951 257.154C624.951 251.033 622.963 246.356 618.937 243.072C614.961 239.787 609.096 238.145 601.342 238.145H580.615V276.261H601.342Z" fill="url(#paint0_radial_331_919)"/>
<defs>
<radialGradient id="paint0_radial_331_919" cx="0" cy="0" r="1" gradientUnits="userSpaceOnUse" gradientTransform="translate(488.898 206.434) rotate(-3.57199) scale(255.168 465.51)">
<stop stop-color="#02F0D4"/>
<stop offset="0.817708" stop-color="#00B2FE"/>
</radialGradient>
</defs>
</svg>
