<svg width="456" height="456" viewBox="0 0 456 456" fill="none" xmlns="http://www.w3.org/2000/svg">
<rect width="456" height="456" fill="url(#paint0_radial_2321_9087)"/>
<rect x="54.75" y="78.1123" width="346.5" height="81.5917" rx="40.7959" stroke="#0FCB47" stroke-width="3.5"/>
<path d="M130.478 118.327H136.578C138.367 118.327 139.734 117.906 140.681 117.065C141.627 116.188 142.101 114.943 142.101 113.331C142.101 111.683 141.627 110.438 140.681 109.597C139.734 108.755 138.367 108.334 136.578 108.334H130.425L132.424 106.494V135.893H123.904V100.077H137.052C139.787 100.077 142.188 100.603 144.257 101.655C146.326 102.707 147.938 104.215 149.095 106.178C150.252 108.141 150.831 110.526 150.831 113.331C150.831 116.171 150.252 118.572 149.095 120.536C147.938 122.499 146.326 124.007 144.257 125.059C142.188 126.11 139.787 126.636 137.052 126.636H130.478V118.327ZM168.097 121.956H184.085V129.844H168.097V121.956ZM159.893 135.893L172.568 100.077H181.561L193.341 135.893H184.769L175.513 105.915H178.616L168.413 135.893H159.893ZM232.284 135.893L213.929 110.596L217.348 109.649V135.893H208.828V100.077H216.717L234.808 125.164L231.6 125.9V100.077H240.12V135.893H232.284ZM258.172 135.893V100.077H270.952C274.738 100.077 277.982 100.796 280.681 102.234C283.381 103.636 285.45 105.67 286.887 108.334C288.325 110.999 289.043 114.207 289.043 117.959C289.043 121.745 288.307 124.971 286.835 127.636C285.397 130.3 283.328 132.351 280.629 133.789C277.929 135.191 274.686 135.893 270.899 135.893H258.172ZM266.692 131.159L263.168 127.636H270.321C272.354 127.636 274.107 127.32 275.58 126.689C277.088 126.023 278.245 124.971 279.051 123.533C279.892 122.096 280.313 120.238 280.313 117.959C280.313 115.715 279.91 113.892 279.104 112.489C278.297 111.052 277.14 110 275.633 109.334C274.16 108.667 272.407 108.334 270.373 108.334H262.8L266.692 105.968V131.159ZM303.623 118.011C303.623 115.276 304.062 112.787 304.938 110.543C305.815 108.264 307.059 106.301 308.672 104.653C310.32 102.97 312.266 101.673 314.51 100.761C316.789 99.8494 319.278 99.3936 321.978 99.3936C324.678 99.3936 327.15 99.8494 329.394 100.761C331.673 101.673 333.636 102.97 335.284 104.653C336.932 106.301 338.194 108.264 339.071 110.543C339.947 112.787 340.385 115.276 340.385 118.011C340.385 120.711 339.947 123.2 339.071 125.479C338.194 127.758 336.932 129.739 335.284 131.422C333.636 133.07 331.673 134.35 329.394 135.261C327.15 136.138 324.678 136.576 321.978 136.576C319.278 136.576 316.789 136.138 314.51 135.261C312.266 134.35 310.32 133.07 308.672 131.422C307.059 129.739 305.815 127.758 304.938 125.479C304.062 123.2 303.623 120.711 303.623 118.011ZM312.301 118.011C312.301 120.115 312.704 121.938 313.511 123.481C314.352 124.988 315.509 126.146 316.982 126.952C318.454 127.758 320.12 128.162 321.978 128.162C323.906 128.162 325.589 127.758 327.027 126.952C328.464 126.146 329.604 124.971 330.445 123.428C331.287 121.886 331.708 120.062 331.708 117.959C331.708 115.855 331.287 114.049 330.445 112.542C329.604 111.034 328.464 109.877 327.027 109.071C325.589 108.229 323.906 107.808 321.978 107.808C320.12 107.808 318.454 108.229 316.982 109.071C315.509 109.877 314.352 111.052 313.511 112.594C312.704 114.102 312.301 115.908 312.301 118.011Z" fill="#FBFE67"/>
<rect x="54.75" y="187.204" width="346.5" height="81.5917" rx="40.7959" stroke="white" stroke-width="3.5"/>
<path d="M130.478 227.419H136.578C138.367 227.419 139.734 226.998 140.681 226.156C141.627 225.28 142.101 224.035 142.101 222.422C142.101 220.774 141.627 219.53 140.681 218.688C139.734 217.847 138.367 217.426 136.578 217.426H130.425L132.424 215.585V244.984H123.904V209.169H137.052C139.787 209.169 142.188 209.695 144.257 210.747C146.326 211.799 147.938 213.306 149.095 215.27C150.252 217.233 150.831 219.617 150.831 222.422C150.831 225.262 150.252 227.664 149.095 229.627C147.938 231.591 146.326 233.099 144.257 234.15C142.188 235.202 139.787 235.728 137.052 235.728H130.478V227.419ZM168.097 231.047H184.085V238.936H168.097V231.047ZM159.893 244.984L172.568 209.169H181.561L193.341 244.984H184.769L175.513 215.007H178.616L168.413 244.984H159.893ZM232.284 244.984L213.929 219.688L217.348 218.741V244.984H208.828V209.169H216.717L234.808 234.256L231.6 234.992V209.169H240.12V244.984H232.284ZM258.172 244.984V209.169H270.952C274.738 209.169 277.982 209.888 280.681 211.325C283.381 212.728 285.45 214.761 286.887 217.426C288.325 220.091 289.043 223.299 289.043 227.05C289.043 230.837 288.307 234.063 286.835 236.727C285.397 239.392 283.328 241.443 280.629 242.881C277.929 244.283 274.686 244.984 270.899 244.984H258.172ZM266.692 240.251L263.168 236.727H270.321C272.354 236.727 274.107 236.412 275.58 235.781C277.088 235.115 278.245 234.063 279.051 232.625C279.892 231.188 280.313 229.329 280.313 227.05C280.313 224.807 279.91 222.983 279.104 221.581C278.297 220.143 277.14 219.092 275.633 218.425C274.16 217.759 272.407 217.426 270.373 217.426H262.8L266.692 215.059V240.251ZM303.623 227.103C303.623 224.368 304.062 221.879 304.938 219.635C305.815 217.356 307.059 215.393 308.672 213.745C310.32 212.062 312.266 210.764 314.51 209.853C316.789 208.941 319.278 208.485 321.978 208.485C324.678 208.485 327.15 208.941 329.394 209.853C331.673 210.764 333.636 212.062 335.284 213.745C336.932 215.393 338.194 217.356 339.071 219.635C339.947 221.879 340.385 224.368 340.385 227.103C340.385 229.803 339.947 232.292 339.071 234.571C338.194 236.85 336.932 238.831 335.284 240.514C333.636 242.162 331.673 243.442 329.394 244.353C327.15 245.23 324.678 245.668 321.978 245.668C319.278 245.668 316.789 245.23 314.51 244.353C312.266 243.442 310.32 242.162 308.672 240.514C307.059 238.831 305.815 236.85 304.938 234.571C304.062 232.292 303.623 229.803 303.623 227.103ZM312.301 227.103C312.301 229.207 312.704 231.03 313.511 232.573C314.352 234.08 315.509 235.237 316.982 236.044C318.454 236.85 320.12 237.253 321.978 237.253C323.906 237.253 325.589 236.85 327.027 236.044C328.464 235.237 329.604 234.063 330.445 232.52C331.287 230.977 331.708 229.154 331.708 227.05C331.708 224.947 331.287 223.141 330.445 221.633C329.604 220.126 328.464 218.969 327.027 218.162C325.589 217.321 323.906 216.9 321.978 216.9C320.12 216.9 318.454 217.321 316.982 218.162C315.509 218.969 314.352 220.143 313.511 221.686C312.704 223.194 312.301 224.999 312.301 227.103Z" fill="white"/>
<g opacity="0.5">
<rect x="54.75" y="296.296" width="346.5" height="81.5917" rx="40.7959" stroke="white" stroke-width="3.5"/>
<path d="M130.478 336.51H136.578C138.367 336.51 139.734 336.09 140.681 335.248C141.627 334.372 142.101 333.127 142.101 331.514C142.101 329.866 141.627 328.622 140.681 327.78C139.734 326.939 138.367 326.518 136.578 326.518H130.425L132.424 324.677V354.076H123.904V318.261H137.052C139.787 318.261 142.188 318.787 144.257 319.839C146.326 320.891 147.938 322.398 149.095 324.362C150.252 326.325 150.831 328.709 150.831 331.514C150.831 334.354 150.252 336.756 149.095 338.719C147.938 340.683 146.326 342.19 144.257 343.242C142.188 344.294 139.787 344.82 137.052 344.82H130.478V336.51ZM168.097 340.139H184.085V348.028H168.097V340.139ZM159.893 354.076L172.568 318.261H181.561L193.341 354.076H184.769L175.513 324.099H178.616L168.413 354.076H159.893ZM232.284 354.076L213.929 328.779L217.348 327.833V354.076H208.828V318.261H216.717L234.808 343.347L231.6 344.084V318.261H240.12V354.076H232.284ZM258.172 354.076V318.261H270.952C274.738 318.261 277.982 318.98 280.681 320.417C283.381 321.82 285.45 323.853 286.887 326.518C288.325 329.183 289.043 332.391 289.043 336.142C289.043 339.929 288.307 343.155 286.835 345.819C285.397 348.484 283.328 350.535 280.629 351.972C277.929 353.375 274.686 354.076 270.899 354.076H258.172ZM266.692 349.343L263.168 345.819H270.321C272.354 345.819 274.107 345.504 275.58 344.873C277.088 344.206 278.245 343.155 279.051 341.717C279.892 340.28 280.313 338.421 280.313 336.142C280.313 333.898 279.91 332.075 279.104 330.673C278.297 329.235 277.14 328.183 275.633 327.517C274.16 326.851 272.407 326.518 270.373 326.518H262.8L266.692 324.151V349.343ZM303.623 336.195C303.623 333.46 304.062 330.971 304.938 328.727C305.815 326.448 307.059 324.484 308.672 322.836C310.32 321.154 312.266 319.856 314.51 318.945C316.789 318.033 319.278 317.577 321.978 317.577C324.678 317.577 327.15 318.033 329.394 318.945C331.673 319.856 333.636 321.154 335.284 322.836C336.932 324.484 338.194 326.448 339.071 328.727C339.947 330.971 340.385 333.46 340.385 336.195C340.385 338.895 339.947 341.384 339.071 343.663C338.194 345.942 336.932 347.923 335.284 349.606C333.636 351.254 331.673 352.533 329.394 353.445C327.15 354.322 324.678 354.76 321.978 354.76C319.278 354.76 316.789 354.322 314.51 353.445C312.266 352.533 310.32 351.254 308.672 349.606C307.059 347.923 305.815 345.942 304.938 343.663C304.062 341.384 303.623 338.895 303.623 336.195ZM312.301 336.195C312.301 338.299 312.704 340.122 313.511 341.664C314.352 343.172 315.509 344.329 316.982 345.136C318.454 345.942 320.12 346.345 321.978 346.345C323.906 346.345 325.589 345.942 327.027 345.136C328.464 344.329 329.604 343.155 330.445 341.612C331.287 340.069 331.708 338.246 331.708 336.142C331.708 334.039 331.287 332.233 330.445 330.725C329.604 329.218 328.464 328.061 327.027 327.254C325.589 326.413 323.906 325.992 321.978 325.992C320.12 325.992 318.454 326.413 316.982 327.254C315.509 328.061 314.352 329.235 313.511 330.778C312.704 332.286 312.301 334.091 312.301 336.195Z" fill="white"/>
</g>
<defs>
<radialGradient id="paint0_radial_2321_9087" cx="0" cy="0" r="1" gradientUnits="userSpaceOnUse" gradientTransform="translate(226.839 466.119) scale(386.523 387.444)">
<stop stop-color="#007C3A"/>
<stop offset="0.24" stop-color="#006930"/>
<stop offset="0.73" stop-color="#00451D"/>
<stop offset="1" stop-color="#003817"/>
</radialGradient>
</defs>
</svg>
